<?xml version="1.0" standalone="no"?><svg xmlns="http://www.w3.org/2000/svg" viewBox="0 0 1440 320"><path fill="#0F1035" fill-opacity="1" d="M0,32L26.7,64C53.3,96,107,160,160,154.7C213.3,149,267,75,320,58.7C373.3,43,427,85,480,138.7C533.3,192,587,256,640,256C693.3,256,747,192,800,181.3C853.3,171,907,213,960,213.3C1013.3,213,1067,171,1120,128C1173.3,85,1227,43,1280,26.7C1333.3,11,1387,21,1413,26.7L1440,32L1440,320L1413.3,320C1386.7,320,1333,320,1280,320C1226.7,320,1173,320,1120,320C1066.7,320,1013,320,960,320C906.7,320,853,320,800,320C746.7,320,693,320,640,320C586.7,320,533,320,480,320C426.7,320,373,320,320,320C266.7,320,213,320,160,320C106.7,320,53,320,27,320L0,320Z"></path></svg>